<?xml version="1.0" encoding="utf-8"?>
<svg viewBox="0 0 500 500" xmlns="http://www.w3.org/2000/svg" xmlns:bx="https://boxy-svg.com">
  <path d="M 337.429 253.771 C 279.632 235.577 222.801 235.575 168.512 253.765 L 167.877 251.869 C 222.573 233.542 279.821 233.54 338.03 251.863 L 337.429 253.771 Z" fill="#e4e4e4" bx:origin="0.52 -1.905"/>
  <ellipse cx="290.763" cy="337.842" rx="131.379" ry="182.079" transform="matrix(0.969336, -0.245741, 0.521633, 0.899393, -248.795319, -63.066963)" fill="#6c63ff" style=""/>
  <path d="M 332.165 456.223 C 333.102 456.222 333.807 455.686 333.821 454.965 C 333.83 454.527 334.476 410.572 317.886 352.152 C 302.564 298.202 268.984 220.492 196.031 156.672 C 195.009 155.774 193.24 155.949 192.848 156.989 C 192.666 157.473 192.849 158.031 193.327 158.447 C 265.651 221.717 298.966 298.856 314.181 352.427 C 330.675 410.506 330.035 454.118 330.026 454.552 C 330.009 455.435 331.02 456.223 332.165 456.223 Z" fill="#3f3d56" style="" transform="matrix(0.998367, 0.057124, -0.057124, 0.998367, 17.918974, -14.541032)"/>
  <path d="M 270.645 235.846 C 272.095 235.847 272.802 234.628 271.918 233.65 C 271.757 233.473 271.553 233.318 271.32 233.197 C 271.072 233.068 246.105 220.25 210.322 210.512 C 177.245 201.511 127.848 193.351 80.372 205.6 C 79.046 205.94 78.878 207.316 80.072 208.077 C 80.629 208.432 81.352 208.552 81.97 208.392 C 128.473 196.393 176.977 204.419 209.478 213.263 C 244.75 222.861 269.249 235.441 269.494 235.566 C 269.844 235.749 270.249 235.846 270.645 235.846 Z" fill="#3f3d56" style="" transform="matrix(0.998367, 0.057124, -0.057124, 0.998367, 12.718391, -9.686399)"/>
  <path d="M 269.359 239.375 C 269.263 239.087 259.946 210.256 276.437 184.53 L 278.12 185.609 C 262.157 210.512 271.164 238.464 271.257 238.743 L 269.359 239.375 Z" fill="#e4e4e4" bx:origin="-0.901 0.434"/>
  <path d="M 288.229 188.23 C 286.154 198.108 274.162 202.036 266.645 195.299 C 263.15 192.168 261.596 187.408 262.567 182.818 C 264.062 175.731 276.731 158.095 283.818 159.59 C 290.904 161.084 289.723 181.143 288.229 188.23 Z" fill="#e4e4e4" bx:origin="-0.22 1.247"/>
  <path d="M 285.84 221.373 C 279.515 228.207 268.201 228.021 268.201 228.021 C 268.201 228.021 267.141 216.756 273.465 209.922 C 279.79 203.087 291.104 203.273 291.104 203.273 C 291.104 203.273 292.164 214.539 285.84 221.373 Z" fill="#e4e4e4" bx:origin="-0.513 0.204"/>
</svg>